<svg xmlns="http://www.w3.org/2000/svg" xmlns:xlink="http://www.w3.org/1999/xlink" version="1.1" x="0px" y="0px" viewBox="0 0 100 125" enable-background="new 0 0 100 100" xml:space="preserve"><g><path d="M39.693,92.329c1.128,1.129,2.965,1.131,4.098,0l48.672-48.676c1.133-1.129,1.133-2.972,0-4.1L59.789,6.879   c-1.134-1.131-2.967-1.133-4.1,0L7.014,55.554c-1.135,1.131-1.127,2.971,0.004,4.1L39.693,92.329z M34.827,80.609L18.733,64.516   c-0.757-0.755-0.757-1.985,0-2.748l10.482-10.476c0.754-0.755,1.984-0.755,2.736,0.003l16.095,16.09   c0.761,0.76,0.761,1.987,0,2.744L37.569,80.609C36.811,81.368,35.586,81.368,34.827,80.609z M35.083,45.424l10.476-10.479   c0.755-0.756,1.985-0.756,2.743,0.002L64.396,51.04c0.761,0.759,0.761,1.987,0,2.743L53.92,64.263   c-0.759,0.755-1.984,0.755-2.742-0.004L35.083,48.165C34.324,47.41,34.324,46.181,35.083,45.424z M43.636,86.194l-2.515,2.512   c-0.205,0.199-0.525,0.199-0.726,0L37.88,86.19c-0.195-0.196-0.195-0.519,0.005-0.717l2.51-2.515   c0.201-0.201,0.521-0.198,0.726-0.004l2.515,2.519C43.832,85.671,43.832,85.994,43.636,86.194z M49.279,80.541l-2.508,2.514   c-0.204,0.201-0.523,0.201-0.726,0l-2.515-2.517c-0.197-0.194-0.197-0.519,0-0.717l2.515-2.512   c0.203-0.201,0.522-0.201,0.719-0.004l2.515,2.516C49.481,80.019,49.481,80.344,49.279,80.541z M54.934,74.891l-2.518,2.513   c-0.197,0.201-0.519,0.199-0.713,0l-2.524-2.518c-0.197-0.195-0.197-0.517,0.007-0.717l2.517-2.516   c0.194-0.2,0.516-0.2,0.713-0.001l2.518,2.517C55.131,74.37,55.131,74.689,54.934,74.891z M60.586,69.236l-2.515,2.517   c-0.202,0.2-0.523,0.198-0.719-0.003l-2.521-2.514c-0.196-0.196-0.196-0.519,0.007-0.717l2.514-2.514   c0.201-0.202,0.517-0.199,0.713-0.005l2.521,2.517C60.784,68.715,60.791,69.041,60.586,69.236z M66.239,63.589l-2.514,2.512   c-0.197,0.201-0.525,0.201-0.722,0l-2.514-2.516c-0.198-0.195-0.198-0.52,0-0.718l2.514-2.514c0.197-0.2,0.525-0.198,0.713-0.002   l2.523,2.514C66.435,63.065,66.438,63.388,66.239,63.589z M71.888,57.938l-2.514,2.514c-0.196,0.197-0.525,0.197-0.722,0   l-2.519-2.519c-0.191-0.196-0.191-0.519,0.005-0.717l2.513-2.514c0.197-0.201,0.525-0.199,0.722-0.004l2.514,2.519   C72.085,57.414,72.093,57.736,71.888,57.938z M77.538,52.283l-2.515,2.519C74.828,55,74.5,54.998,74.305,54.797l-2.515-2.515   c-0.197-0.197-0.205-0.519,0-0.717l2.515-2.514c0.196-0.201,0.523-0.201,0.719-0.004l2.515,2.519   C77.735,51.764,77.735,52.086,77.538,52.283z M83.19,46.633l-2.514,2.514c-0.203,0.201-0.519,0.199-0.719,0l-2.513-2.514   c-0.198-0.197-0.206-0.521,0-0.72l2.513-2.514c0.2-0.203,0.524-0.199,0.719-0.003l2.514,2.514   C83.393,46.112,83.393,46.432,83.19,46.633z M83.092,40.261l2.513-2.514c0.205-0.199,0.526-0.199,0.724-0.002l2.514,2.514   c0.2,0.202,0.2,0.524,0,0.725l-2.514,2.514c-0.207,0.2-0.519,0.197-0.724-0.002l-2.513-2.516   C82.895,40.783,82.895,40.462,83.092,40.261z M64.649,18.6l16.093,16.09c0.76,0.763,0.76,1.992,0.005,2.747L70.271,47.913   c-0.766,0.759-1.988,0.759-2.75,0L51.434,31.82c-0.76-0.76-0.76-1.987,0-2.744L61.91,18.598   C62.664,17.841,63.895,17.841,64.649,18.6z M55.846,13.014L58.36,10.5c0.198-0.201,0.52-0.201,0.716-0.002l2.518,2.516   c0.204,0.199,0.204,0.521,0,0.722L59.08,16.25c-0.2,0.199-0.522,0.197-0.72-0.002l-2.521-2.517   C55.644,13.538,55.644,13.213,55.846,13.014z M50.194,18.667l2.514-2.515c0.197-0.201,0.52-0.198,0.716-0.002l2.521,2.515   c0.197,0.2,0.197,0.523,0,0.721L53.431,21.9c-0.203,0.201-0.526,0.201-0.723,0l-2.518-2.515   C49.993,19.189,49.993,18.864,50.194,18.667z M44.545,24.318l2.514-2.52c0.197-0.197,0.524-0.197,0.714,0l2.513,2.517   c0.207,0.199,0.207,0.521,0.01,0.72l-2.516,2.516c-0.204,0.201-0.524,0.201-0.726-0.002l-2.515-2.516   C44.342,24.836,44.342,24.517,44.545,24.318z M38.895,29.967l2.514-2.514c0.196-0.201,0.521-0.199,0.717-0.002l2.516,2.516   c0.198,0.201,0.198,0.521,0,0.723l-2.516,2.514c-0.2,0.201-0.521,0.197-0.725-0.002l-2.516-2.516   C38.69,30.489,38.69,30.168,38.895,29.967z M33.237,35.62l2.513-2.514c0.205-0.2,0.526-0.2,0.724-0.003l2.518,2.517   c0.196,0.199,0.196,0.521,0,0.72l-2.515,2.513c-0.201,0.2-0.521,0.2-0.727,0l-2.513-2.516C33.047,36.141,33.04,35.819,33.237,35.62   z M27.591,41.27l2.514-2.512c0.197-0.201,0.521-0.201,0.716-0.004l2.521,2.516c0.197,0.201,0.197,0.523,0,0.725l-2.514,2.512   c-0.202,0.198-0.525,0.198-0.722,0l-2.517-2.517C27.391,41.793,27.391,41.473,27.591,41.27z M21.935,46.92l2.515-2.513   c0.202-0.201,0.523-0.197,0.718-0.004l2.515,2.518c0.207,0.202,0.207,0.521,0,0.72l-2.515,2.517c-0.195,0.199-0.516,0.199-0.718,0   l-2.515-2.519C21.738,47.442,21.738,47.122,21.935,46.92z M16.283,52.571l2.516-2.514c0.203-0.197,0.523-0.197,0.72,0l2.514,2.514   c0.204,0.201,0.204,0.521,0,0.723l-2.514,2.514c-0.197,0.201-0.517,0.201-0.72,0l-2.516-2.516   C16.087,53.094,16.087,52.772,16.283,52.571z M10.634,58.226l2.514-2.514c0.203-0.201,0.525-0.2,0.722-0.004l2.514,2.515   c0.195,0.202,0.2,0.524,0,0.724l-2.514,2.516c-0.197,0.196-0.527,0.196-0.722-0.003l-2.514-2.516   C10.436,58.746,10.436,58.426,10.634,58.226z"/></g><text x="0" y="115" fill="#000000" font-size="5px" font-weight="bold" font-family="'Helvetica Neue', Helvetica, Arial-Unicode, Arial, Sans-serif">Created by Mint Shirt</text><text x="0" y="120" fill="#000000" font-size="5px" font-weight="bold" font-family="'Helvetica Neue', Helvetica, Arial-Unicode, Arial, Sans-serif">from the Noun Project</text></svg>